<svg id="Layer_1" data-name="Layer 1" xmlns="http://www.w3.org/2000/svg" viewBox="0 0 102.02 61.67"><defs><style>.cls-1{fill:#231f20;}.cls-2{fill:#e5d0af;}.cls-3{fill:#784a2a;}.cls-4{fill:#545456;}.cls-5{fill:#c26616;}</style></defs><title>cliffcare</title><path class="cls-1" d="M91.75,17.16"/><path class="cls-2" d="M97.71,17.67a7.75,7.75,0,0,0-1.85.92L81.15,29h0a1.16,1.16,0,0,1-1.29,0l-0.45-.33-9.9-6.83a1.17,1.17,0,1,1,1.32-1.92l0.42,0.29h0c1.05,0.72,2.15,1.48,3.09,2.14l2.84,2,0.07,0,1.81,1.27a2.33,2.33,0,0,0,2.69-3.81c-0.48-.34-3-2.1-5.61-3.88C74,16.42,71.32,14.62,70,13.88c-4.14-2.38-12-1.61-15.33,2.68a2.33,2.33,0,0,0,.46,3.3l21.65,16a2.33,2.33,0,0,0,2.74,0L100,21.33a19.3,19.3,0,0,0,1.7-1.3C102.22,19.28,100.59,17.09,97.71,17.67Z"/><path class="cls-3" d="M96.05,12.35L79.57,0.44A2.33,2.33,0,0,0,76.75.5L71.5,4.67a2.33,2.33,0,0,0,2.9,3.65l3.25-2.58a1.16,1.16,0,0,1,1.27,0l14.41,10.4A2.33,2.33,0,0,0,96.05,12.35Z"/><path class="cls-4" d="M0,46.86c0-8.81,2.43-11.34,8-11.34,4.61,0,7,2.81,7,6.24,0,1.63-.59,2.77-2.36,2.77s-2.22-.73-2.5-2.81C9.92,40,9.22,39.2,8,39.2c-2.12,0-3.16.94-3.16,8.39V49c0,6,.14,9,3,9a2.54,2.54,0,0,0,2.32-2.53c0.14-2.81.55-3.81,2.5-3.81,1.59,0,2.36,1.08,2.36,2.74,0,5.2-3.05,7.28-7.56,7.28-7.28,0-7.49-6-7.49-10.85v-4Z"/><path class="cls-4" d="M48.75,46.86c0-8.81,2.43-11.34,8-11.34,4.61,0,7,2.81,7,6.24,0,1.63-.59,2.77-2.36,2.77s-2.22-.73-2.5-2.81C58.67,40,58,39.2,56.76,39.2c-2.12,0-3.16.94-3.16,8.39V49c0,6,.14,9,3,9a2.54,2.54,0,0,0,2.32-2.53c0.14-2.81.55-3.81,2.5-3.81,1.59,0,2.36,1.08,2.36,2.74,0,5.2-3.05,7.28-7.56,7.28-7.28,0-7.49-6-7.49-10.85v-4Z"/><path class="cls-4" d="M17.13,38.19c0-1.73.83-2.53,2.12-2.53s2.12,0.8,2.12,2.53V59c0,1.73-.83,2.53-2.12,2.53s-2.12-.8-2.12-2.53V38.19Z"/><path class="cls-4" d="M26.7,35.52a2.43,2.43,0,1,1-2.43,2.43A2.41,2.41,0,0,1,26.7,35.52ZM24.59,44.4c0-1.73.83-2.53,2.12-2.53s2.12,0.8,2.12,2.53V59c0,1.73-.83,2.53-2.12,2.53s-2.12-.8-2.12-2.53V44.4Z"/><path class="cls-4" d="M32.32,45.47H31.87c-1.25,0-1.87-.42-1.87-1.56s0.63-1.6,1.87-1.6h0.45v-2.5c0-3.19,1.49-4.16,4.65-4.16,1.39,0,2.12.55,2.12,1.87A1.29,1.29,0,0,1,37.8,39c-1,0-1.25.49-1.25,1.6v1.73h5c1.25,0,1.87.42,1.87,1.6s-0.62,1.56-1.87,1.56h-5V59c0,1.73-.83,2.53-2.12,2.53s-2.12-.8-2.12-2.53V45.47Z"/><path class="cls-4" d="M41,45.47H40.5c-1.25,0-1.87-.42-1.87-1.56s0.62-1.6,1.87-1.6H41v-2.5c0-3.19,1.49-4.16,4.65-4.16,1.39,0,2.12.55,2.12,1.87A1.29,1.29,0,0,1,46.43,39c-1,0-1.25.49-1.25,1.6v1.73h0.66c1.25,0,1.87.42,1.87,1.6s-0.62,1.56-1.87,1.56H45.18V59c0,1.73-.83,2.53-2.12,2.53S41,60.73,41,59V45.47Z"/><path class="cls-4" d="M77.45,57.06c0,1.21.24,2.22,0.24,2.81,0,1.11-.76,1.66-2.12,1.66a2.07,2.07,0,0,1-2.22-2.39l-0.07,0a4,4,0,0,1-3.85,2.36c-2.5,0-4.37-1.49-4.37-5,0-2.84.8-4.47,3-5.65l3.78-2a2.18,2.18,0,0,0,1.35-2A1.67,1.67,0,0,0,71.58,45c-1.45,0-1.91.73-2.08,2.22a1.79,1.79,0,0,1-2,1.35c-0.94,0-2.22-.45-2.22-1.73,0-3.26,2.64-5,5.9-5,5.65,0,6.28,2.5,6.28,5.55v9.64Zm-4.23-5.69-1.49,1c-1.87,1.32-2.22,2-2.22,3.57,0,1.42.59,2.22,1.49,2.22,1.39,0,2.22-1.53,2.22-3.5V51.37Z"/><path class="cls-4" d="M79.89,44.16c0-1.39.59-2.29,2-2.29s2,0.9,2,2.29v1.77h0.07c0.62-2.36,1.7-4.06,3.16-4.06,1.14,0,2.08.83,2.08,2.74a2.36,2.36,0,0,1-2.64,2.53,2.34,2.34,0,0,0-2.39,2.57V59c0,1.73-.83,2.53-2.12,2.53s-2.12-.8-2.12-2.53V44.16Z"/><path class="cls-4" d="M89.67,49.74c0-4.79.69-7.87,6.45-7.87,4.4,0,5.9,2.46,5.9,7.39,0,1.7-.21,3-2.36,3H94.11v1.91c0,2.25.17,4,1.91,4a1.87,1.87,0,0,0,1.63-1.94c0.07-1.84.9-2.26,2.08-2.26s2.15,0.42,2.15,2.08c0,3.4-2.32,5.44-5.76,5.44-5.76,0-6.45-3.09-6.45-7.87V49.74Zm8.12-.45V47.73c0-1.42-.45-2.53-1.84-2.53s-1.84,1.11-1.84,2.53v1.56h3.68Z"/><path class="cls-5" d="M84.6,12.15L72.19,3.65a2.33,2.33,0,0,0-2.68,0L64.77,7.1a2.33,2.33,0,0,0,2.72,3.79l2.82-2a1.15,1.15,0,0,1,.61-0.18,1.17,1.17,0,0,1,.66.2h0L82,16A2.33,2.33,0,0,0,84.6,12.15Z"/></svg>