<?xml version="1.0" encoding="UTF-8" standalone="no"?>
<svg width="19px" height="34px" viewBox="0 0 19 34" version="1.1" xmlns="http://www.w3.org/2000/svg" xmlns:xlink="http://www.w3.org/1999/xlink" xmlns:sketch="http://www.bohemiancoding.com/sketch/ns">
    <!-- Generator: Sketch 3.3.3 (12072) - http://www.bohemiancoding.com/sketch -->
    <title>fa-facebook</title>
    <desc>Created with Sketch.</desc>
    <defs></defs>
    <g id="Page-1" stroke="none" stroke-width="1" fill="none" fill-rule="evenodd" sketch:type="MSPage">
        <g id="fa-facebook" sketch:type="MSLayerGroup" fill="#FFFFFF">
            <path d="M5.65036364,18.3951429 L5.65036364,33.3158571 L11.9307273,33.3158571 L11.9307273,18.3951429 L17.1474545,18.3951429 L17.9541818,12.5761429 L11.9307273,12.5761429 L11.9307273,8.83614286 C11.9307273,7.92 12.1516364,7.21442857 12.5558182,6.721 C12.96,6.26214286 13.7307273,6.01542857 14.9056364,6.01542857 L18.1014545,6.01542857 L18.1014545,0.829714286 C17.0001818,0.653714286 15.4570909,0.583 13.4378182,0.583 C11.0863636,0.583 9.17672727,1.25242857 7.78090909,2.59442857 C6.34909091,3.93328571 5.65036364,5.83785714 5.65036364,8.272 L5.65036364,12.5761429 L0.435272727,12.5761429 L0.435272727,18.3951429 L5.65036364,18.3951429" id="Fill-22" sketch:type="MSShapeGroup"></path>
        </g>
    </g>
</svg>