<?xml version="1.0" encoding="UTF-8" standalone="no"?>
<svg width="35px" height="34px" viewBox="0 0 35 34" version="1.1" xmlns="http://www.w3.org/2000/svg" xmlns:xlink="http://www.w3.org/1999/xlink" xmlns:sketch="http://www.bohemiancoding.com/sketch/ns">
    <!-- Generator: Sketch 3.3.3 (12072) - http://www.bohemiancoding.com/sketch -->
    <title>fa-instagram</title>
    <desc>Created with Sketch.</desc>
    <defs></defs>
    <g id="Page-1" stroke="none" stroke-width="1" fill="none" fill-rule="evenodd" sketch:type="MSPage">
        <g id="fa-instagram" sketch:type="MSLayerGroup" transform="translate(1.000000, 0.000000)" fill="#FFFFFF">
            <path d="M1.02126316,32.3660526 C1.87926316,33.1858421 2.89357895,33.6148421 4.06247368,33.6148421 L28.8958421,33.6148421 C30.0647368,33.6148421 31.0790526,33.1858421 31.9370526,32.3660526 C32.7551053,31.5097895 33.1841053,30.4954737 33.1841053,29.3265789 L33.1841053,4.49321053 C33.1841053,3.32257895 32.7551053,2.31 31.9370526,1.452 C31.0790526,0.633947368 30.0647368,0.204947368 28.8958421,0.204947368 L4.06247368,0.204947368 C2.89357895,0.204947368 1.87926316,0.633947368 1.02126316,1.452 C0.203210526,2.31 -0.225789474,3.32257895 -0.225789474,4.49321053 L-0.225789474,29.3265789 C-0.225789474,30.4954737 0.203210526,31.5097895 1.02126316,32.3660526 L1.02126316,32.3660526 Z M3.47715789,14.355 L6.55657895,14.355 C6.28389474,15.2529474 6.12931579,16.2273158 6.12931579,17.2016842 C6.12931579,19.9702105 7.14189474,22.3479474 9.16878947,24.3366316 C11.1974211,26.2853684 13.6533158,27.2597368 16.4982632,27.2597368 C18.4087895,27.2597368 20.1247895,26.7925263 21.7226842,25.8945789 C23.3205789,24.9983684 24.5676316,23.7895263 25.5037895,22.2697895 C26.4399474,20.7101053 26.9071579,19.0340526 26.9071579,17.2016842 C26.9071579,16.2273158 26.7508421,15.2529474 26.4781579,14.355 L29.403,14.355 L29.403,28.4286316 C29.403,28.8194211 29.2848947,29.1303158 29.0122105,29.3647895 C28.7395263,29.6374737 28.4286316,29.7538421 28.0777895,29.7538421 L4.80236842,29.7538421 C4.41331579,29.7538421 4.10068421,29.6374737 3.86794737,29.3647895 C3.59526316,29.1303158 3.47715789,28.8194211 3.47715789,28.4286316 L3.47715789,14.355 L3.47715789,14.355 Z M16.4982632,10.3411579 C18.3705789,10.3411579 19.9684737,10.9646842 21.2554737,12.2499474 C22.5806842,13.5369474 23.2424211,15.0566842 23.2424211,16.8508421 C23.2424211,18.6432632 22.5806842,20.2029474 21.2554737,21.4517368 C19.9684737,22.737 18.3705789,23.3605263 16.4982632,23.3605263 C14.6658947,23.3605263 13.068,22.737 11.781,21.4517368 C10.4557895,20.2029474 9.79231579,18.6432632 9.79231579,16.8508421 C9.79231579,15.0566842 10.4557895,13.5369474 11.781,12.2499474 C13.068,10.9646842 14.6658947,10.3411579 16.4982632,10.3411579 L16.4982632,10.3411579 Z M22.6188947,5.42763158 C22.6188947,4.99863158 22.7752105,4.64952632 23.0478947,4.33689474 C23.3605263,4.06421053 23.7113684,3.90789474 24.1386316,3.90789474 L27.9214737,3.90789474 C28.3105263,3.90789474 28.6613684,4.06421053 28.974,4.33689474 C29.2466842,4.64952632 29.403,4.99863158 29.403,5.42763158 L29.403,9.01421053 C29.403,9.44321053 29.2466842,9.79405263 28.974,10.1066842 C28.6613684,10.3793684 28.3105263,10.5356842 27.9214737,10.5356842 L24.1386316,10.5356842 C23.7113684,10.5356842 23.3605263,10.3793684 23.0478947,10.1066842 C22.7752105,9.79405263 22.6188947,9.44321053 22.6188947,9.01421053 L22.6188947,5.42763158 L22.6188947,5.42763158 Z" id="Fill-46" sketch:type="MSShapeGroup"></path>
        </g>
    </g>
</svg>