<?xml version="1.0" encoding="UTF-8" standalone="no"?>
<svg width="155px" height="90px" viewBox="0 0 155 90" version="1.1" xmlns="http://www.w3.org/2000/svg" xmlns:xlink="http://www.w3.org/1999/xlink" xmlns:sketch="http://www.bohemiancoding.com/sketch/ns">
    <!-- Generator: Sketch 3.3.2 (12043) - http://www.bohemiancoding.com/sketch -->
    <title>Untitled 2</title>
    <desc>Created with Sketch.</desc>
    <defs></defs>
    <g id="Page-1" stroke="none" stroke-width="1" fill="none" fill-rule="evenodd" sketch:type="MSPage">
        <rect id="Rectangle-1" stroke="#FFFFFF" stroke-width="8" sketch:type="MSShapeGroup" x="4" y="4" width="147" height="82"></rect>
        <path d="M23.104,27.184 L32.36,27.184 L41.46,51.312 L41.564,51.312 L50.82,27.184 L59.504,27.184 L44.32,64 L37.82,64 L23.104,27.184 Z M86.728,36.752 C85.9306627,35.7813285 84.9513392,35.0360026 83.79,34.516 C82.6286609,33.9959974 81.285341,33.736 79.76,33.736 C78.2346591,33.736 76.8220065,34.0306637 75.522,34.62 C74.2219935,35.2093363 73.0953381,36.0326614 72.142,37.09 C71.1886619,38.1473386 70.443336,39.4039927 69.906,40.86 C69.368664,42.3160073 69.1,43.8933248 69.1,45.592 C69.1,47.325342 69.368664,48.9113261 69.906,50.35 C70.443336,51.7886739 71.1799953,53.0366614 72.116,54.094 C73.0520047,55.1513386 74.1526604,55.9746637 75.418,56.564 C76.6833397,57.1533363 78.0439927,57.448 79.5,57.448 C81.1640083,57.448 82.6373269,57.1013368 83.92,56.408 C85.2026731,55.7146632 86.2599959,54.7440062 87.092,53.496 L93.852,58.54 C92.2919922,60.7240109 90.316012,62.3359948 87.924,63.376 C85.5319881,64.4160052 83.0706793,64.936 80.54,64.936 C77.6626523,64.936 75.0106788,64.4853378 72.584,63.584 C70.1573212,62.6826622 68.0600089,61.3913417 66.292,59.71 C64.5239912,58.0286583 63.146005,55.992012 62.158,53.6 C61.1699951,51.207988 60.676,48.5386814 60.676,45.592 C60.676,42.6453186 61.1699951,39.976012 62.158,37.584 C63.146005,35.191988 64.5239912,33.1553417 66.292,31.474 C68.0600089,29.7926583 70.1573212,28.5013378 72.584,27.6 C75.0106788,26.6986622 77.6626523,26.248 80.54,26.248 C81.5800052,26.248 82.6633277,26.3433324 83.79,26.534 C84.9166723,26.7246676 86.0259946,27.0279979 87.118,27.444 C88.2100055,27.8600021 89.2586617,28.4146632 90.264,29.108 C91.2693384,29.8013368 92.1706627,30.6506616 92.968,31.656 L86.728,36.752 Z M122.148,36.752 C121.350663,35.7813285 120.371339,35.0360026 119.21,34.516 C118.048661,33.9959974 116.705341,33.736 115.18,33.736 C113.654659,33.736 112.242007,34.0306637 110.942,34.62 C109.641994,35.2093363 108.515338,36.0326614 107.562,37.09 C106.608662,38.1473386 105.863336,39.4039927 105.326,40.86 C104.788664,42.3160073 104.52,43.8933248 104.52,45.592 C104.52,47.325342 104.788664,48.9113261 105.326,50.35 C105.863336,51.7886739 106.599995,53.0366614 107.536,54.094 C108.472005,55.1513386 109.57266,55.9746637 110.838,56.564 C112.10334,57.1533363 113.463993,57.448 114.92,57.448 C116.584008,57.448 118.057327,57.1013368 119.34,56.408 C120.622673,55.7146632 121.679996,54.7440062 122.512,53.496 L129.272,58.54 C127.711992,60.7240109 125.736012,62.3359948 123.344,63.376 C120.951988,64.4160052 118.490679,64.936 115.96,64.936 C113.082652,64.936 110.430679,64.4853378 108.004,63.584 C105.577321,62.6826622 103.480009,61.3913417 101.712,59.71 C99.9439912,58.0286583 98.5660049,55.992012 97.578,53.6 C96.5899951,51.207988 96.096,48.5386814 96.096,45.592 C96.096,42.6453186 96.5899951,39.976012 97.578,37.584 C98.5660049,35.191988 99.9439912,33.1553417 101.712,31.474 C103.480009,29.7926583 105.577321,28.5013378 108.004,27.6 C110.430679,26.6986622 113.082652,26.248 115.96,26.248 C117.000005,26.248 118.083328,26.3433324 119.21,26.534 C120.336672,26.7246676 121.445995,27.0279979 122.538,27.444 C123.630005,27.8600021 124.678662,28.4146632 125.684,29.108 C126.689338,29.8013368 127.590663,30.6506616 128.388,31.656 L122.148,36.752 Z" id="VCC" fill="#FFFFFF" sketch:type="MSShapeGroup"></path>
    </g>
</svg>