<?xml version="1.0" encoding="utf-8"?>
<!-- Generator: Adobe Illustrator 19.2.0, SVG Export Plug-In . SVG Version: 6.00 Build 0)  -->
<svg version="1.1" id="Icons" xmlns="http://www.w3.org/2000/svg" xmlns:xlink="http://www.w3.org/1999/xlink" x="0px" y="0px"
   width="100px" height="100px" viewBox="0 0 100 100" style="enable-background:new 0 0 100 100;" xml:space="preserve">
<style type="text/css">
  .st0{clip-path:url(#SVGID_2_);}
  .st1{clip-path:url(#SVGID_4_);fill:#000000;}
</style>
<g>
  <g>
    <defs>
      <rect id="SVGID_1_" x="12" y="12" width="76" height="76"/>
    </defs>
    <clipPath id="SVGID_2_">
      <use xlink:href="#SVGID_1_"  style="overflow:visible;"/>
    </clipPath>
    <g class="st0">
      <g>
        <defs>
          <rect id="SVGID_3_" x="12" y="12" width="76" height="76"/>
        </defs>
        <clipPath id="SVGID_4_">
          <use xlink:href="#SVGID_3_"  style="overflow:visible;"/>
        </clipPath>
        <path class="st1" d="M50.002,42.284c-8.842,0-16.031,7.191-16.031,16.034c0,8.835,7.189,16.029,16.031,16.029
          s16.031-7.194,16.031-16.029C66.034,49.475,58.845,42.284,50.002,42.284 M66.627,23.877L61.88,16.75H38.125l-4.748,7.127H16.752
          v49.875h14.25c4.65,5.515,11.234,9.498,19,9.498s14.352-3.983,19.002-9.498h14.248V23.877
          C83.252,23.877,66.627,23.877,66.627,23.877z M50.002,78.502c-11.134,0-20.188-9.053-20.188-20.185s9.054-20.192,20.188-20.192
          c11.136,0,20.19,9.061,20.19,20.192C70.192,69.449,61.139,78.502,50.002,78.502 M72.712,37.087
          c-1.396,1.389-3.646,1.387-5.037-0.005c-1.396-1.392-1.396-3.648-0.005-5.037c1.392-1.392,3.641-1.387,5.037,0.002
          C74.099,33.441,74.099,35.695,72.712,37.087"/>
      </g>
    </g>
  </g>
</g>
</svg>
