<?xml version="1.0" encoding="utf-8"?>
<!-- Generator: Adobe Illustrator 19.2.0, SVG Export Plug-In . SVG Version: 6.00 Build 0)  -->
<svg version="1.1" id="Icons" xmlns="http://www.w3.org/2000/svg" xmlns:xlink="http://www.w3.org/1999/xlink" x="0px" y="0px"
	 width="100px" height="100px" viewBox="0 0 100 100" style="enable-background:new 0 0 100 100;" xml:space="preserve">
<style type="text/css">
	.st0{clip-path:url(#SVGID_2_);}
	.st1{clip-path:url(#SVGID_4_);fill:#FFFFFF;}
</style>
<g>
	<g>
		<defs>
			<rect id="SVGID_1_" x="19.055" y="19.055" width="61.89" height="61.89"/>
		</defs>
		<clipPath id="SVGID_2_">
			<use xlink:href="#SVGID_1_"  style="overflow:visible;"/>
		</clipPath>
		<g class="st0">
			<g>
				<defs>
					<rect id="SVGID_3_" x="19.055" y="19.055" width="61.89" height="61.89"/>
				</defs>
				<clipPath id="SVGID_4_">
					<use xlink:href="#SVGID_3_"  style="overflow:visible;"/>
				</clipPath>
				<path class="st1" d="M50.002,43.716c-7.2,0-13.055,5.856-13.055,13.057c0,7.195,5.854,13.053,13.055,13.053
					s13.055-5.858,13.055-13.053C63.057,49.573,57.202,43.716,50.002,43.716 M63.54,28.727l-3.866-5.804H40.33l-3.866,5.804H22.925
					v40.615H34.53c3.787,4.491,9.148,7.734,15.472,7.734s11.687-3.243,15.474-7.734h11.602V28.727
					C77.079,28.727,63.54,28.727,63.54,28.727z M50.002,73.211c-9.067,0-16.439-7.373-16.439-16.437S40.935,40.33,50.002,40.33
					c9.069,0,16.441,7.378,16.441,16.443S59.071,73.211,50.002,73.211 M68.495,39.485c-1.137,1.131-2.969,1.129-4.102-0.004
					c-1.137-1.133-1.137-2.971-0.004-4.102c1.133-1.133,2.965-1.129,4.102,0.002C69.625,36.516,69.625,38.351,68.495,39.485"/>
			</g>
		</g>
	</g>
</g>
</svg>
