<?xml version="1.0" encoding="utf-8"?>
<!-- Generator: Adobe Illustrator 19.2.0, SVG Export Plug-In . SVG Version: 6.00 Build 0)  -->
<svg version="1.1" id="Icons" xmlns="http://www.w3.org/2000/svg" xmlns:xlink="http://www.w3.org/1999/xlink" x="0px" y="0px"
	 width="100px" height="100px" viewBox="0 0 100 100" style="enable-background:new 0 0 100 100;" xml:space="preserve">
<style type="text/css">
	.st0{clip-path:url(#SVGID_2_);}
	.st1{clip-path:url(#SVGID_4_);fill:#FFFFFF;}
</style>
<g>
	<g>
		<defs>
			<rect id="SVGID_1_" x="19.1" y="19.1" width="61.9" height="61.9"/>
		</defs>
		<use xlink:href="#SVGID_1_"  style="overflow:visible;fill:#FFFFFF;"/>
		<clipPath id="SVGID_2_">
			<use xlink:href="#SVGID_1_"  style="overflow:visible;"/>
		</clipPath>
		<g class="st0">
			<g>
				<defs>
					<rect id="SVGID_3_" x="19.1" y="19.1" width="61.9" height="61.9"/>
				</defs>
				<use xlink:href="#SVGID_3_"  style="overflow:visible;fill:#FFFFFF;"/>
				<clipPath id="SVGID_4_">
					<use xlink:href="#SVGID_3_"  style="overflow:visible;"/>
				</clipPath>
				<path class="st1" d="M50,43.7c-7.2,0-13.1,5.9-13.1,13.1c0,7.2,5.9,13.1,13.1,13.1S63.1,64,63.1,56.8
					C63.1,49.6,57.2,43.7,50,43.7 M63.5,28.7l-3.9-5.8H40.3l-3.9,5.8H22.9v40.6h11.6c3.8,4.5,9.1,7.7,15.5,7.7s11.7-3.2,15.5-7.7
					h11.6V28.7C77.1,28.7,63.5,28.7,63.5,28.7z M50,73.2c-9.1,0-16.4-7.4-16.4-16.4S40.9,40.3,50,40.3c9.1,0,16.4,7.4,16.4,16.4
					S59.1,73.2,50,73.2 M68.5,39.5c-1.1,1.1-3,1.1-4.1,0c-1.1-1.1-1.1-3,0-4.1c1.1-1.1,3-1.1,4.1,0C69.6,36.5,69.6,38.4,68.5,39.5"
					/>
			</g>
		</g>
	</g>
</g>
</svg>
