<?xml version="1.0" encoding="utf-8"?>
<!-- Generator: Adobe Illustrator 19.1.0, SVG Export Plug-In . SVG Version: 6.00 Build 0)  -->
<svg version="1.1" id="Icons" xmlns="http://www.w3.org/2000/svg" xmlns:xlink="http://www.w3.org/1999/xlink" x="0px" y="0px"
	 viewBox="-429 231 100 100" style="enable-background:new -429 231 100 100;" xml:space="preserve">
<style type="text/css">
	.st0{fill:#FFFFFF;}
</style>
<path id="SmugMug" class="st0" d="M-387.6,242.8c0,3.7-3.9,6.8-8.7,6.8c-4.8,0-8.7-3-8.7-6.8c0-3.7,3.9-6.8,8.7-6.8
	C-391.5,236-387.6,239-387.6,242.8z M-357.2,236c-4.8,0-8.7,3-8.7,6.8c0,3.7,3.9,6.8,8.7,6.8c4.8,0,8.7-3,8.7-6.8
	C-348.5,239-352.4,236-357.2,236z M-334,270.3c0,6.6-14.9,55.7-53.1,55.7c-38.2,0-42.5-35.9-31.9-58.1c2.1-4.4,4.2-4.9,4.2-4.9h74.3
	C-340.4,263-334,263.7-334,270.3z M-343,272h-68.2c-4.5,9-6.3,23.4-0.3,33.6c5.6,9.4,16.3,11.4,24.4,11.4
	C-358.1,317-345.2,281-343,272z"/>
</svg>
