<?xml version="1.0" encoding="utf-8"?>
<!-- Generator: Adobe Illustrator 19.1.0, SVG Export Plug-In . SVG Version: 6.00 Build 0)  -->
<svg version="1.1" id="Icons" xmlns="http://www.w3.org/2000/svg" xmlns:xlink="http://www.w3.org/1999/xlink" x="0px" y="0px"
	 viewBox="-429 231 100 100" style="enable-background:new -429 231 100 100;" xml:space="preserve">
<style type="text/css">
	.st0{fill:#FFFFFF;}
</style>
<path id="SmugMug" class="st0" d="M-384.5,256.5c0,2.4-2.5,4.3-5.6,4.3c-3.1,0-5.6-1.9-5.6-4.3c0-2.4,2.5-4.3,5.6-4.3
	C-387,252.2-384.5,254.2-384.5,256.5z M-365,252.2c-3.1,0-5.6,1.9-5.6,4.3c0,2.4,2.5,4.3,5.6,4.3c3.1,0,5.6-1.9,5.6-4.3
	C-359.5,254.2-362,252.2-365,252.2z M-350.2,274.2c0,4.3-9.5,35.6-34,35.6c-24.5,0-27.2-23-20.4-37.2c1.4-2.8,2.7-3.1,2.7-3.1h47.5
	C-354.3,269.5-350.2,269.9-350.2,274.2z M-356,275.2h-43.6c-2.9,5.8-4.1,15-0.2,21.5c3.6,6,10.5,7.3,15.6,7.3
	C-365.6,304-357.4,281-356,275.2z"/>
</svg>
