<?xml version="1.0" encoding="UTF-8" standalone="no"?>
<svg width="41px" height="33px" viewBox="0 0 41 33" version="1.1" xmlns="http://www.w3.org/2000/svg" xmlns:xlink="http://www.w3.org/1999/xlink" xmlns:sketch="http://www.bohemiancoding.com/sketch/ns">
    <!-- Generator: Sketch 3.3.3 (12072) - http://www.bohemiancoding.com/sketch -->
    <title>fa-twitter</title>
    <desc>Created with Sketch.</desc>
    <defs></defs>
    <g id="Page-1" stroke="none" stroke-width="1" fill="none" fill-rule="evenodd" sketch:type="MSPage">
        <g id="fa-twitter" sketch:type="MSLayerGroup" fill="#FFFFFF">
            <path d="M13.0933576,32.6709444 C15.9848376,32.6709444 18.6932107,32.2202196 21.2687809,31.3167578 C23.7980714,30.3670163 25.9651723,29.1476447 27.7720958,27.6123634 C29.5327395,26.0770821 31.1143006,24.3164384 32.4242196,22.3284201 C33.6878587,20.2961342 34.6818679,18.2175685 35.3136874,16.0504676 C35.9475192,13.8833667 36.263429,11.7142536 36.263429,9.50087296 L36.263429,8.4625962 C37.8429779,7.28950444 39.1991766,5.88903812 40.3280008,4.2632094 C38.7464397,4.89502898 37.2111583,5.34575377 35.6295972,5.48258094 C37.3922531,4.44229202 38.6116247,2.95329047 39.1991766,1.01155196 C37.6176155,1.95928133 35.9012394,2.63738068 34.0500483,2.99755808 C32.4242196,1.28118197 30.4362013,0.424 28.0880056,0.424 C25.8746249,0.424 23.9328864,1.19063458 22.3513253,2.77219569 C20.7717764,4.3980244 19.958862,6.2954953 19.958862,8.55314359 C19.958862,9.14069556 20.0494094,9.77251513 20.1842244,10.4043347 C16.8420196,10.2695197 13.7251771,9.41032557 10.7894295,7.92132402 C7.89996162,6.38604269 5.41493876,4.3980244 3.38265287,1.91501371 C2.6602859,3.17865287 2.25382872,4.53283941 2.25382872,6.02385312 C2.25382872,7.37803967 2.61601828,8.6879586 3.24783786,9.90733014 C3.92593721,11.0824341 4.78311919,12.0301634 5.91194334,12.7988102 C4.6020244,12.7525304 3.38265287,12.392353 2.2095611,11.7605334 L2.2095611,11.8510808 C2.2095611,13.8370869 2.84138068,15.553463 4.06075222,17.0444768 C5.32439137,18.5354905 6.8596727,19.4369401 8.75714359,19.8433972 C8.03477662,20.024492 7.31240966,20.1150394 6.59004269,20.1150394 C6.13730573,20.1150394 5.64030116,20.0707718 5.05476136,19.9802244 C5.59603355,21.6060531 6.54376291,22.9602397 7.94422923,24.0005286 C9.34469556,25.083073 10.9262567,25.6243451 12.6869004,25.6243451 C9.70688512,27.974553 6.36468029,29.1033771 2.56973851,29.1033771 C1.84737154,29.1033771 1.21555196,29.1033771 0.628,29.0128297 C4.37666201,31.4515728 8.57604881,32.6709444 13.0933576,32.6709444" id="Fill-178" sketch:type="MSShapeGroup"></path>
        </g>
    </g>
</svg>